<?xml version="1.0" encoding="utf-8" standalone="no"?>
<!DOCTYPE svg PUBLIC "-//W3C//DTD SVG 1.1//EN"
  "http://www.w3.org/Graphics/SVG/1.1/DTD/svg11.dtd">
<!-- Created with matplotlib (https://matplotlib.org/) -->
<svg height="345.6pt" version="1.1" viewBox="0 0 460.8 345.6" width="460.8pt" xmlns="http://www.w3.org/2000/svg" xmlns:xlink="http://www.w3.org/1999/xlink">
 <defs>
  <style type="text/css">
*{stroke-linecap:butt;stroke-linejoin:round;}
  </style>
 </defs>
 <g id="figure_1">
  <g id="patch_1">
   <path d="M 0 345.6 
L 460.8 345.6 
L 460.8 0 
L 0 0 
z
" style="fill:#ffffff;"/>
  </g>
  <g id="axes_1">
   <g id="patch_2">
    <path d="M 57.6 307.584 
L 414.72 307.584 
L 414.72 41.472 
L 57.6 41.472 
z
" style="fill:#ffffff;"/>
   </g>
   <g id="PathCollection_1">
    <defs>
     <path d="M 0 3 
C 0.795609 3 1.55874 2.683901 2.12132 2.12132 
C 2.683901 1.55874 3 0.795609 3 0 
C 3 -0.795609 2.683901 -1.55874 2.12132 -2.12132 
C 1.55874 -2.683901 0.795609 -3 0 -3 
C -0.795609 -3 -1.55874 -2.683901 -2.12132 -2.12132 
C -2.683901 -1.55874 -3 -0.795609 -3 0 
C -3 0.795609 -2.683901 1.55874 -2.12132 2.12132 
C -1.55874 2.683901 -0.795609 3 0 3 
z
" id="C0_0_ff62a9f3a9"/>
    </defs>
    <g clip-path="url(#pdf473859fe)">
     <use style="fill:#440154;stroke:#440154;" x="85.245934" xlink:href="#C0_0_ff62a9f3a9" y="158.671697"/>
    </g>
    <g clip-path="url(#pdf473859fe)">
     <use style="fill:#440154;stroke:#440154;" x="73.842691" xlink:href="#C0_0_ff62a9f3a9" y="247.58935"/>
    </g>
    <g clip-path="url(#pdf473859fe)">
     <use style="fill:#440154;stroke:#440154;" x="96.089613" xlink:href="#C0_0_ff62a9f3a9" y="241.843795"/>
    </g>
    <g clip-path="url(#pdf473859fe)">
     <use style="fill:#440154;stroke:#440154;" x="135.051164" xlink:href="#C0_0_ff62a9f3a9" y="229.420661"/>
    </g>
    <g clip-path="url(#pdf473859fe)">
     <use style="fill:#440154;stroke:#440154;" x="229.165063" xlink:href="#C0_0_ff62a9f3a9" y="249.644503"/>
    </g>
    <g clip-path="url(#pdf473859fe)">
     <use style="fill:#440154;stroke:#440154;" x="112.086552" xlink:href="#C0_0_ff62a9f3a9" y="251.672229"/>
    </g>
    <g clip-path="url(#pdf473859fe)">
     <use style="fill:#440154;stroke:#440154;" x="116.543062" xlink:href="#C0_0_ff62a9f3a9" y="248.035547"/>
    </g>
    <g clip-path="url(#pdf473859fe)">
     <use style="fill:#440154;stroke:#440154;" x="154.44627" xlink:href="#C0_0_ff62a9f3a9" y="198.397044"/>
    </g>
    <g clip-path="url(#pdf473859fe)">
     <use style="fill:#440154;stroke:#440154;" x="117.233578" xlink:href="#C0_0_ff62a9f3a9" y="178.366138"/>
    </g>
    <g clip-path="url(#pdf473859fe)">
     <use style="fill:#440154;stroke:#440154;" x="118.239307" xlink:href="#C0_0_ff62a9f3a9" y="198.718462"/>
    </g>
    <g clip-path="url(#pdf473859fe)">
     <use style="fill:#440154;stroke:#440154;" x="189.374018" xlink:href="#C0_0_ff62a9f3a9" y="53.583419"/>
    </g>
    <g clip-path="url(#pdf473859fe)">
     <use style="fill:#440154;stroke:#440154;" x="398.477309" xlink:href="#C0_0_ff62a9f3a9" y="295.472581"/>
    </g>
    <g clip-path="url(#pdf473859fe)">
     <use style="fill:#440154;stroke:#440154;" x="124.645469" xlink:href="#C0_0_ff62a9f3a9" y="235.3191"/>
    </g>
    <g clip-path="url(#pdf473859fe)">
     <use style="fill:#440154;stroke:#440154;" x="139.014897" xlink:href="#C0_0_ff62a9f3a9" y="208.810641"/>
    </g>
    <g clip-path="url(#pdf473859fe)">
     <use style="fill:#440154;stroke:#440154;" x="184.095276" xlink:href="#C0_0_ff62a9f3a9" y="60.002449"/>
    </g>
    <g clip-path="url(#pdf473859fe)">
     <use style="fill:#440154;stroke:#440154;" x="108.662541" xlink:href="#C0_0_ff62a9f3a9" y="257.344592"/>
    </g>
    <g clip-path="url(#pdf473859fe)">
     <use style="fill:#440154;stroke:#440154;" x="118.546256" xlink:href="#C0_0_ff62a9f3a9" y="258.93357"/>
    </g>
    <g clip-path="url(#pdf473859fe)">
     <use style="fill:#440154;stroke:#440154;" x="100.617971" xlink:href="#C0_0_ff62a9f3a9" y="243.147474"/>
    </g>
    <g clip-path="url(#pdf473859fe)">
     <use style="fill:#440154;stroke:#440154;" x="99.518583" xlink:href="#C0_0_ff62a9f3a9" y="242.8956"/>
    </g>
    <g clip-path="url(#pdf473859fe)">
     <use style="fill:#21918c;stroke:#21918c;" x="121.914932" xlink:href="#C0_0_ff62a9f3a9" y="233.161959"/>
    </g>
    <g clip-path="url(#pdf473859fe)">
     <use style="fill:#21918c;stroke:#21918c;" x="136.984924" xlink:href="#C0_0_ff62a9f3a9" y="215.624955"/>
    </g>
    <g clip-path="url(#pdf473859fe)">
     <use style="fill:#21918c;stroke:#21918c;" x="113.32488" xlink:href="#C0_0_ff62a9f3a9" y="232.160119"/>
    </g>
    <g clip-path="url(#pdf473859fe)">
     <use style="fill:#21918c;stroke:#21918c;" x="153.668618" xlink:href="#C0_0_ff62a9f3a9" y="232.18184"/>
    </g>
    <g clip-path="url(#pdf473859fe)">
     <use style="fill:#21918c;stroke:#21918c;" x="119.999149" xlink:href="#C0_0_ff62a9f3a9" y="247.505235"/>
    </g>
    <g clip-path="url(#pdf473859fe)">
     <use style="fill:#21918c;stroke:#21918c;" x="121.8692" xlink:href="#C0_0_ff62a9f3a9" y="229.66401"/>
    </g>
    <g clip-path="url(#pdf473859fe)">
     <use style="fill:#21918c;stroke:#21918c;" x="109.338825" xlink:href="#C0_0_ff62a9f3a9" y="251.434048"/>
    </g>
    <g clip-path="url(#pdf473859fe)">
     <use style="fill:#21918c;stroke:#21918c;" x="125.963613" xlink:href="#C0_0_ff62a9f3a9" y="245.451615"/>
    </g>
    <g clip-path="url(#pdf473859fe)">
     <use style="fill:#21918c;stroke:#21918c;" x="134.448449" xlink:href="#C0_0_ff62a9f3a9" y="242.251338"/>
    </g>
    <g clip-path="url(#pdf473859fe)">
     <use style="fill:#21918c;stroke:#21918c;" x="121.572325" xlink:href="#C0_0_ff62a9f3a9" y="221.398159"/>
    </g>
    <g clip-path="url(#pdf473859fe)">
     <use style="fill:#21918c;stroke:#21918c;" x="128.025977" xlink:href="#C0_0_ff62a9f3a9" y="235.286787"/>
    </g>
    <g clip-path="url(#pdf473859fe)">
     <use style="fill:#21918c;stroke:#21918c;" x="126.480937" xlink:href="#C0_0_ff62a9f3a9" y="236.640522"/>
    </g>
    <g clip-path="url(#pdf473859fe)">
     <use style="fill:#21918c;stroke:#21918c;" x="118.605108" xlink:href="#C0_0_ff62a9f3a9" y="244.248175"/>
    </g>
    <g clip-path="url(#pdf473859fe)">
     <use style="fill:#21918c;stroke:#21918c;" x="121.941129" xlink:href="#C0_0_ff62a9f3a9" y="247.094954"/>
    </g>
    <g clip-path="url(#pdf473859fe)">
     <use style="fill:#21918c;stroke:#21918c;" x="133.956174" xlink:href="#C0_0_ff62a9f3a9" y="246.235323"/>
    </g>
    <g clip-path="url(#pdf473859fe)">
     <use style="fill:#21918c;stroke:#21918c;" x="141.079171" xlink:href="#C0_0_ff62a9f3a9" y="244.38761"/>
    </g>
    <g clip-path="url(#pdf473859fe)">
     <use style="fill:#21918c;stroke:#21918c;" x="120.495175" xlink:href="#C0_0_ff62a9f3a9" y="244.612745"/>
    </g>
    <g clip-path="url(#pdf473859fe)">
     <use style="fill:#21918c;stroke:#21918c;" x="107.826181" xlink:href="#C0_0_ff62a9f3a9" y="255.902038"/>
    </g>
    <g clip-path="url(#pdf473859fe)">
     <use style="fill:#21918c;stroke:#21918c;" x="123.687908" xlink:href="#C0_0_ff62a9f3a9" y="238.858929"/>
    </g>
    <g clip-path="url(#pdf473859fe)">
     <use style="fill:#fde725;stroke:#fde725;" x="114.951266" xlink:href="#C0_0_ff62a9f3a9" y="202.041081"/>
    </g>
    <g clip-path="url(#pdf473859fe)">
     <use style="fill:#fde725;stroke:#fde725;" x="124.458842" xlink:href="#C0_0_ff62a9f3a9" y="242.675991"/>
    </g>
    <g clip-path="url(#pdf473859fe)">
     <use style="fill:#fde725;stroke:#fde725;" x="109.092431" xlink:href="#C0_0_ff62a9f3a9" y="215.377773"/>
    </g>
    <g clip-path="url(#pdf473859fe)">
     <use style="fill:#fde725;stroke:#fde725;" x="118.966017" xlink:href="#C0_0_ff62a9f3a9" y="208.76811"/>
    </g>
    <g clip-path="url(#pdf473859fe)">
     <use style="fill:#fde725;stroke:#fde725;" x="110.43086" xlink:href="#C0_0_ff62a9f3a9" y="223.989017"/>
    </g>
    <g clip-path="url(#pdf473859fe)">
     <use style="fill:#fde725;stroke:#fde725;" x="107.428794" xlink:href="#C0_0_ff62a9f3a9" y="229.148534"/>
    </g>
    <g clip-path="url(#pdf473859fe)">
     <use style="fill:#fde725;stroke:#fde725;" x="123.747245" xlink:href="#C0_0_ff62a9f3a9" y="225.455752"/>
    </g>
    <g clip-path="url(#pdf473859fe)">
     <use style="fill:#fde725;stroke:#fde725;" x="130.434956" xlink:href="#C0_0_ff62a9f3a9" y="207.73245"/>
    </g>
    <g clip-path="url(#pdf473859fe)">
     <use style="fill:#fde725;stroke:#fde725;" x="116.940123" xlink:href="#C0_0_ff62a9f3a9" y="202.643393"/>
    </g>
    <g clip-path="url(#pdf473859fe)">
     <use style="fill:#fde725;stroke:#fde725;" x="135.06213" xlink:href="#C0_0_ff62a9f3a9" y="239.748645"/>
    </g>
    <g clip-path="url(#pdf473859fe)">
     <use style="fill:#fde725;stroke:#fde725;" x="148.649462" xlink:href="#C0_0_ff62a9f3a9" y="234.795993"/>
    </g>
    <g clip-path="url(#pdf473859fe)">
     <use style="fill:#fde725;stroke:#fde725;" x="123.864274" xlink:href="#C0_0_ff62a9f3a9" y="235.177962"/>
    </g>
    <g clip-path="url(#pdf473859fe)">
     <use style="fill:#fde725;stroke:#fde725;" x="120.815293" xlink:href="#C0_0_ff62a9f3a9" y="226.969756"/>
    </g>
    <g clip-path="url(#pdf473859fe)">
     <use style="fill:#fde725;stroke:#fde725;" x="129.549298" xlink:href="#C0_0_ff62a9f3a9" y="242.085275"/>
    </g>
    <g clip-path="url(#pdf473859fe)">
     <use style="fill:#fde725;stroke:#fde725;" x="119.702362" xlink:href="#C0_0_ff62a9f3a9" y="228.373432"/>
    </g>
    <g clip-path="url(#pdf473859fe)">
     <use style="fill:#fde725;stroke:#fde725;" x="108.823351" xlink:href="#C0_0_ff62a9f3a9" y="228.162844"/>
    </g>
    <g clip-path="url(#pdf473859fe)">
     <use style="fill:#fde725;stroke:#fde725;" x="129.701192" xlink:href="#C0_0_ff62a9f3a9" y="245.378867"/>
    </g>
    <g clip-path="url(#pdf473859fe)">
     <use style="fill:#fde725;stroke:#fde725;" x="119.681657" xlink:href="#C0_0_ff62a9f3a9" y="230.77555"/>
    </g>
    <g clip-path="url(#pdf473859fe)">
     <use style="fill:#fde725;stroke:#fde725;" x="119.059557" xlink:href="#C0_0_ff62a9f3a9" y="168.013601"/>
    </g>
   </g>
   <g id="matplotlib.axis_1">
    <g id="xtick_1">
     <g id="line2d_1">
      <defs>
       <path d="M 0 0 
L 0 3.5 
" id="m49aed18bce" style="stroke:#000000;stroke-width:0.8;"/>
      </defs>
      <g>
       <use style="stroke:#000000;stroke-width:0.8;" x="88.526404" xlink:href="#m49aed18bce" y="307.584"/>
      </g>
     </g>
     <g id="text_1">
      <!-- −25 -->
      <defs>
       <path d="M 10.59375 35.5 
L 73.1875 35.5 
L 73.1875 27.203125 
L 10.59375 27.203125 
z
" id="DejaVuSans-8722"/>
       <path d="M 19.1875 8.296875 
L 53.609375 8.296875 
L 53.609375 0 
L 7.328125 0 
L 7.328125 8.296875 
Q 12.9375 14.109375 22.625 23.890625 
Q 32.328125 33.6875 34.8125 36.53125 
Q 39.546875 41.84375 41.421875 45.53125 
Q 43.3125 49.21875 43.3125 52.78125 
Q 43.3125 58.59375 39.234375 62.25 
Q 35.15625 65.921875 28.609375 65.921875 
Q 23.96875 65.921875 18.8125 64.3125 
Q 13.671875 62.703125 7.8125 59.421875 
L 7.8125 69.390625 
Q 13.765625 71.78125 18.9375 73 
Q 24.125 74.21875 28.421875 74.21875 
Q 39.75 74.21875 46.484375 68.546875 
Q 53.21875 62.890625 53.21875 53.421875 
Q 53.21875 48.921875 51.53125 44.890625 
Q 49.859375 40.875 45.40625 35.40625 
Q 44.1875 33.984375 37.640625 27.21875 
Q 31.109375 20.453125 19.1875 8.296875 
z
" id="DejaVuSans-50"/>
       <path d="M 10.796875 72.90625 
L 49.515625 72.90625 
L 49.515625 64.59375 
L 19.828125 64.59375 
L 19.828125 46.734375 
Q 21.96875 47.46875 24.109375 47.828125 
Q 26.265625 48.1875 28.421875 48.1875 
Q 40.625 48.1875 47.75 41.5 
Q 54.890625 34.8125 54.890625 23.390625 
Q 54.890625 11.625 47.5625 5.09375 
Q 40.234375 -1.421875 26.90625 -1.421875 
Q 22.3125 -1.421875 17.546875 -0.640625 
Q 12.796875 0.140625 7.71875 1.703125 
L 7.71875 11.625 
Q 12.109375 9.234375 16.796875 8.0625 
Q 21.484375 6.890625 26.703125 6.890625 
Q 35.15625 6.890625 40.078125 11.328125 
Q 45.015625 15.765625 45.015625 23.390625 
Q 45.015625 31 40.078125 35.4375 
Q 35.15625 39.890625 26.703125 39.890625 
Q 22.75 39.890625 18.8125 39.015625 
Q 14.890625 38.140625 10.796875 36.28125 
z
" id="DejaVuSans-53"/>
      </defs>
      <g transform="translate(77.974061 322.182437)scale(0.1 -0.1)">
       <use xlink:href="#DejaVuSans-8722"/>
       <use x="83.789062" xlink:href="#DejaVuSans-50"/>
       <use x="147.412109" xlink:href="#DejaVuSans-53"/>
      </g>
     </g>
    </g>
    <g id="xtick_2">
     <g id="line2d_2">
      <g>
       <use style="stroke:#000000;stroke-width:0.8;" x="129.709427" xlink:href="#m49aed18bce" y="307.584"/>
      </g>
     </g>
     <g id="text_2">
      <!-- 0 -->
      <defs>
       <path d="M 31.78125 66.40625 
Q 24.171875 66.40625 20.328125 58.90625 
Q 16.5 51.421875 16.5 36.375 
Q 16.5 21.390625 20.328125 13.890625 
Q 24.171875 6.390625 31.78125 6.390625 
Q 39.453125 6.390625 43.28125 13.890625 
Q 47.125 21.390625 47.125 36.375 
Q 47.125 51.421875 43.28125 58.90625 
Q 39.453125 66.40625 31.78125 66.40625 
z
M 31.78125 74.21875 
Q 44.046875 74.21875 50.515625 64.515625 
Q 56.984375 54.828125 56.984375 36.375 
Q 56.984375 17.96875 50.515625 8.265625 
Q 44.046875 -1.421875 31.78125 -1.421875 
Q 19.53125 -1.421875 13.0625 8.265625 
Q 6.59375 17.96875 6.59375 36.375 
Q 6.59375 54.828125 13.0625 64.515625 
Q 19.53125 74.21875 31.78125 74.21875 
z
" id="DejaVuSans-48"/>
      </defs>
      <g transform="translate(126.528177 322.182437)scale(0.1 -0.1)">
       <use xlink:href="#DejaVuSans-48"/>
      </g>
     </g>
    </g>
    <g id="xtick_3">
     <g id="line2d_3">
      <g>
       <use style="stroke:#000000;stroke-width:0.8;" x="170.89245" xlink:href="#m49aed18bce" y="307.584"/>
      </g>
     </g>
     <g id="text_3">
      <!-- 25 -->
      <g transform="translate(164.52995 322.182437)scale(0.1 -0.1)">
       <use xlink:href="#DejaVuSans-50"/>
       <use x="63.623047" xlink:href="#DejaVuSans-53"/>
      </g>
     </g>
    </g>
    <g id="xtick_4">
     <g id="line2d_4">
      <g>
       <use style="stroke:#000000;stroke-width:0.8;" x="212.075472" xlink:href="#m49aed18bce" y="307.584"/>
      </g>
     </g>
     <g id="text_4">
      <!-- 50 -->
      <g transform="translate(205.712972 322.182437)scale(0.1 -0.1)">
       <use xlink:href="#DejaVuSans-53"/>
       <use x="63.623047" xlink:href="#DejaVuSans-48"/>
      </g>
     </g>
    </g>
    <g id="xtick_5">
     <g id="line2d_5">
      <g>
       <use style="stroke:#000000;stroke-width:0.8;" x="253.258495" xlink:href="#m49aed18bce" y="307.584"/>
      </g>
     </g>
     <g id="text_5">
      <!-- 75 -->
      <defs>
       <path d="M 8.203125 72.90625 
L 55.078125 72.90625 
L 55.078125 68.703125 
L 28.609375 0 
L 18.3125 0 
L 43.21875 64.59375 
L 8.203125 64.59375 
z
" id="DejaVuSans-55"/>
      </defs>
      <g transform="translate(246.895995 322.182437)scale(0.1 -0.1)">
       <use xlink:href="#DejaVuSans-55"/>
       <use x="63.623047" xlink:href="#DejaVuSans-53"/>
      </g>
     </g>
    </g>
    <g id="xtick_6">
     <g id="line2d_6">
      <g>
       <use style="stroke:#000000;stroke-width:0.8;" x="294.441518" xlink:href="#m49aed18bce" y="307.584"/>
      </g>
     </g>
     <g id="text_6">
      <!-- 100 -->
      <defs>
       <path d="M 12.40625 8.296875 
L 28.515625 8.296875 
L 28.515625 63.921875 
L 10.984375 60.40625 
L 10.984375 69.390625 
L 28.421875 72.90625 
L 38.28125 72.90625 
L 38.28125 8.296875 
L 54.390625 8.296875 
L 54.390625 0 
L 12.40625 0 
z
" id="DejaVuSans-49"/>
      </defs>
      <g transform="translate(284.897768 322.182437)scale(0.1 -0.1)">
       <use xlink:href="#DejaVuSans-49"/>
       <use x="63.623047" xlink:href="#DejaVuSans-48"/>
       <use x="127.246094" xlink:href="#DejaVuSans-48"/>
      </g>
     </g>
    </g>
    <g id="xtick_7">
     <g id="line2d_7">
      <g>
       <use style="stroke:#000000;stroke-width:0.8;" x="335.62454" xlink:href="#m49aed18bce" y="307.584"/>
      </g>
     </g>
     <g id="text_7">
      <!-- 125 -->
      <g transform="translate(326.08079 322.182437)scale(0.1 -0.1)">
       <use xlink:href="#DejaVuSans-49"/>
       <use x="63.623047" xlink:href="#DejaVuSans-50"/>
       <use x="127.246094" xlink:href="#DejaVuSans-53"/>
      </g>
     </g>
    </g>
    <g id="xtick_8">
     <g id="line2d_8">
      <g>
       <use style="stroke:#000000;stroke-width:0.8;" x="376.807563" xlink:href="#m49aed18bce" y="307.584"/>
      </g>
     </g>
     <g id="text_8">
      <!-- 150 -->
      <g transform="translate(367.263813 322.182437)scale(0.1 -0.1)">
       <use xlink:href="#DejaVuSans-49"/>
       <use x="63.623047" xlink:href="#DejaVuSans-53"/>
       <use x="127.246094" xlink:href="#DejaVuSans-48"/>
      </g>
     </g>
    </g>
   </g>
   <g id="matplotlib.axis_2">
    <g id="ytick_1">
     <g id="line2d_9">
      <defs>
       <path d="M 0 0 
L -3.5 0 
" id="ma49f8d086e" style="stroke:#000000;stroke-width:0.8;"/>
      </defs>
      <g>
       <use style="stroke:#000000;stroke-width:0.8;" x="57.6" xlink:href="#ma49f8d086e" y="301.23407"/>
      </g>
     </g>
     <g id="text_9">
      <!-- −40 -->
      <defs>
       <path d="M 37.796875 64.3125 
L 12.890625 25.390625 
L 37.796875 25.390625 
z
M 35.203125 72.90625 
L 47.609375 72.90625 
L 47.609375 25.390625 
L 58.015625 25.390625 
L 58.015625 17.1875 
L 47.609375 17.1875 
L 47.609375 0 
L 37.796875 0 
L 37.796875 17.1875 
L 4.890625 17.1875 
L 4.890625 26.703125 
z
" id="DejaVuSans-52"/>
      </defs>
      <g transform="translate(29.495313 305.033289)scale(0.1 -0.1)">
       <use xlink:href="#DejaVuSans-8722"/>
       <use x="83.789062" xlink:href="#DejaVuSans-52"/>
       <use x="147.412109" xlink:href="#DejaVuSans-48"/>
      </g>
     </g>
    </g>
    <g id="ytick_2">
     <g id="line2d_10">
      <g>
       <use style="stroke:#000000;stroke-width:0.8;" x="57.6" xlink:href="#ma49f8d086e" y="263.242326"/>
      </g>
     </g>
     <g id="text_10">
      <!-- −20 -->
      <g transform="translate(29.495313 267.041545)scale(0.1 -0.1)">
       <use xlink:href="#DejaVuSans-8722"/>
       <use x="83.789062" xlink:href="#DejaVuSans-50"/>
       <use x="147.412109" xlink:href="#DejaVuSans-48"/>
      </g>
     </g>
    </g>
    <g id="ytick_3">
     <g id="line2d_11">
      <g>
       <use style="stroke:#000000;stroke-width:0.8;" x="57.6" xlink:href="#ma49f8d086e" y="225.250583"/>
      </g>
     </g>
     <g id="text_11">
      <!-- 0 -->
      <g transform="translate(44.2375 229.049802)scale(0.1 -0.1)">
       <use xlink:href="#DejaVuSans-48"/>
      </g>
     </g>
    </g>
    <g id="ytick_4">
     <g id="line2d_12">
      <g>
       <use style="stroke:#000000;stroke-width:0.8;" x="57.6" xlink:href="#ma49f8d086e" y="187.25884"/>
      </g>
     </g>
     <g id="text_12">
      <!-- 20 -->
      <g transform="translate(37.875 191.058058)scale(0.1 -0.1)">
       <use xlink:href="#DejaVuSans-50"/>
       <use x="63.623047" xlink:href="#DejaVuSans-48"/>
      </g>
     </g>
    </g>
    <g id="ytick_5">
     <g id="line2d_13">
      <g>
       <use style="stroke:#000000;stroke-width:0.8;" x="57.6" xlink:href="#ma49f8d086e" y="149.267096"/>
      </g>
     </g>
     <g id="text_13">
      <!-- 40 -->
      <g transform="translate(37.875 153.066315)scale(0.1 -0.1)">
       <use xlink:href="#DejaVuSans-52"/>
       <use x="63.623047" xlink:href="#DejaVuSans-48"/>
      </g>
     </g>
    </g>
    <g id="ytick_6">
     <g id="line2d_14">
      <g>
       <use style="stroke:#000000;stroke-width:0.8;" x="57.6" xlink:href="#ma49f8d086e" y="111.275353"/>
      </g>
     </g>
     <g id="text_14">
      <!-- 60 -->
      <defs>
       <path d="M 33.015625 40.375 
Q 26.375 40.375 22.484375 35.828125 
Q 18.609375 31.296875 18.609375 23.390625 
Q 18.609375 15.53125 22.484375 10.953125 
Q 26.375 6.390625 33.015625 6.390625 
Q 39.65625 6.390625 43.53125 10.953125 
Q 47.40625 15.53125 47.40625 23.390625 
Q 47.40625 31.296875 43.53125 35.828125 
Q 39.65625 40.375 33.015625 40.375 
z
M 52.59375 71.296875 
L 52.59375 62.3125 
Q 48.875 64.0625 45.09375 64.984375 
Q 41.3125 65.921875 37.59375 65.921875 
Q 27.828125 65.921875 22.671875 59.328125 
Q 17.53125 52.734375 16.796875 39.40625 
Q 19.671875 43.65625 24.015625 45.921875 
Q 28.375 48.1875 33.59375 48.1875 
Q 44.578125 48.1875 50.953125 41.515625 
Q 57.328125 34.859375 57.328125 23.390625 
Q 57.328125 12.15625 50.6875 5.359375 
Q 44.046875 -1.421875 33.015625 -1.421875 
Q 20.359375 -1.421875 13.671875 8.265625 
Q 6.984375 17.96875 6.984375 36.375 
Q 6.984375 53.65625 15.1875 63.9375 
Q 23.390625 74.21875 37.203125 74.21875 
Q 40.921875 74.21875 44.703125 73.484375 
Q 48.484375 72.75 52.59375 71.296875 
z
" id="DejaVuSans-54"/>
      </defs>
      <g transform="translate(37.875 115.074572)scale(0.1 -0.1)">
       <use xlink:href="#DejaVuSans-54"/>
       <use x="63.623047" xlink:href="#DejaVuSans-48"/>
      </g>
     </g>
    </g>
    <g id="ytick_7">
     <g id="line2d_15">
      <g>
       <use style="stroke:#000000;stroke-width:0.8;" x="57.6" xlink:href="#ma49f8d086e" y="73.28361"/>
      </g>
     </g>
     <g id="text_15">
      <!-- 80 -->
      <defs>
       <path d="M 31.78125 34.625 
Q 24.75 34.625 20.71875 30.859375 
Q 16.703125 27.09375 16.703125 20.515625 
Q 16.703125 13.921875 20.71875 10.15625 
Q 24.75 6.390625 31.78125 6.390625 
Q 38.8125 6.390625 42.859375 10.171875 
Q 46.921875 13.96875 46.921875 20.515625 
Q 46.921875 27.09375 42.890625 30.859375 
Q 38.875 34.625 31.78125 34.625 
z
M 21.921875 38.8125 
Q 15.578125 40.375 12.03125 44.71875 
Q 8.5 49.078125 8.5 55.328125 
Q 8.5 64.0625 14.71875 69.140625 
Q 20.953125 74.21875 31.78125 74.21875 
Q 42.671875 74.21875 48.875 69.140625 
Q 55.078125 64.0625 55.078125 55.328125 
Q 55.078125 49.078125 51.53125 44.71875 
Q 48 40.375 41.703125 38.8125 
Q 48.828125 37.15625 52.796875 32.3125 
Q 56.78125 27.484375 56.78125 20.515625 
Q 56.78125 9.90625 50.3125 4.234375 
Q 43.84375 -1.421875 31.78125 -1.421875 
Q 19.734375 -1.421875 13.25 4.234375 
Q 6.78125 9.90625 6.78125 20.515625 
Q 6.78125 27.484375 10.78125 32.3125 
Q 14.796875 37.15625 21.921875 38.8125 
z
M 18.3125 54.390625 
Q 18.3125 48.734375 21.84375 45.5625 
Q 25.390625 42.390625 31.78125 42.390625 
Q 38.140625 42.390625 41.71875 45.5625 
Q 45.3125 48.734375 45.3125 54.390625 
Q 45.3125 60.0625 41.71875 63.234375 
Q 38.140625 66.40625 31.78125 66.40625 
Q 25.390625 66.40625 21.84375 63.234375 
Q 18.3125 60.0625 18.3125 54.390625 
z
" id="DejaVuSans-56"/>
      </defs>
      <g transform="translate(37.875 77.082828)scale(0.1 -0.1)">
       <use xlink:href="#DejaVuSans-56"/>
       <use x="63.623047" xlink:href="#DejaVuSans-48"/>
      </g>
     </g>
    </g>
   </g>
   <g id="patch_3">
    <path d="M 57.6 307.584 
L 57.6 41.472 
" style="fill:none;stroke:#000000;stroke-linecap:square;stroke-linejoin:miter;stroke-width:0.8;"/>
   </g>
   <g id="patch_4">
    <path d="M 414.72 307.584 
L 414.72 41.472 
" style="fill:none;stroke:#000000;stroke-linecap:square;stroke-linejoin:miter;stroke-width:0.8;"/>
   </g>
   <g id="patch_5">
    <path d="M 57.6 307.584 
L 414.72 307.584 
" style="fill:none;stroke:#000000;stroke-linecap:square;stroke-linejoin:miter;stroke-width:0.8;"/>
   </g>
   <g id="patch_6">
    <path d="M 57.6 41.472 
L 414.72 41.472 
" style="fill:none;stroke:#000000;stroke-linecap:square;stroke-linejoin:miter;stroke-width:0.8;"/>
   </g>
  </g>
 </g>
 <defs>
  <clipPath id="pdf473859fe">
   <rect height="266.112" width="357.12" x="57.6" y="41.472"/>
  </clipPath>
 </defs>
</svg>
